# xmcd CD database file
#
# Track frame offsets:
#	150
#	11586
#	21165
#	32010
#	51177
#	63495
#	74951
#	84552
#	98569
#	113252
#	124440
#	145210
#	157887
#	169976
#	186516
#	200542
#	216097
#	232490
#	246019
#	265800
#	278661
#	289282
#	309915
#	325899
#
# Disc length: 4512 seconds
#
# Revision: 3
# Processed by: cddbd v1.5.1PL0 Copyright (c) Steve Scherf et al.
# Submitted via: CDex 1.51
#
DISCID=69119e18
DTITLE=Elvis Presley - Great Country Songs
DYEAR=1900
DGENRE=Country
TTITLE0=I Forgot To Remember To Forget
TTITLE1=Blue Moon Of Kentucky
TTITLE2=When My Blue Moon Turns To Gold Again
TTITLE3=Old Shep
TTITLE4=Your Cheatin' Heart
TTITLE5=A Fool Such As I (Now And Then There's) 
TTITLE6=Just Call Me Lonesome
TTITLE7=There Goes My Everything
TTITLE8=Kentucky Rain
TTITLE9=From A Jack To A King
TTITLE10=I'll Hold You In My Heart (Till I Can Hold You In My Arms)
TTITLE11=I Really Don't Want To Know
TTITLE12=It Keeps Right On A Hurting
TTITLE13=Green Green Grass Of Home
TTITLE14=Fairytale
TTITLE15=Gentle On My Mind
TTITLE16=Make The World Go Away
TTITLE17=You Asked Me To
TTITLE18=Funny How Time Slips Away
TTITLE19=Help Me Make It Through The Night
TTITLE20=Susan When She Tried
TTITLE21=He'll Have To Go
TTITLE22=Always On My Mind
TTITLE23=Guitar Man (Remake)
EXTD=
EXTT0=
EXTT1=
EXTT2=
EXTT3=
EXTT4=
EXTT5=
EXTT6=
EXTT7=
EXTT8=
EXTT9=
EXTT10=
EXTT11=
EXTT12=
EXTT13=
EXTT14=
EXTT15=
EXTT16=
EXTT17=
EXTT18=
EXTT19=
EXTT20=
EXTT21=
EXTT22=
EXTT23=
PLAYORDER=
